<?xml version="1.0" standalone="no"?>
<!DOCTYPE svg PUBLIC "-//W3C//DTD SVG 20010904//EN"
 "http://www.w3.org/TR/2001/REC-SVG-20010904/DTD/svg10.dtd">
<svg version="1.0" xmlns="http://www.w3.org/2000/svg"
 width="585.000000pt" height="648.000000pt" viewBox="0 0 585.000000 648.000000"
 preserveAspectRatio="xMidYMid meet">
<metadata>
Created by potrace 1.15, written by Peter Selinger 2001-2017
</metadata>
<g transform="translate(0.000000,648.000000) scale(0.100000,-0.100000)"
fill="#000000" stroke="none">
<path d="M2760 6460 c-627 -77 -1130 -473 -1335 -1053 -15 -43 -35 -82 -44
-86 -9 -5 -97 -32 -196 -60 -268 -77 -284 -85 -319 -160 -21 -46 -21 -49 -24
-1126 -3 -1153 0 -1274 43 -1480 33 -158 66 -256 130 -390 148 -307 360 -539
680 -742 91 -58 416 -261 1055 -659 96 -60 155 -79 215 -69 51 7 142 63 1151
696 192 121 286 193 394 300 224 224 381 501 451 794 54 230 52 163 56 1414 3
809 1 1180 -7 1215 -12 56 -48 109 -88 130 -15 8 -117 40 -227 71 -110 32
-207 61 -217 66 -9 5 -26 39 -38 75 -47 148 -157 348 -263 479 -61 76 -206
215 -289 277 -193 146 -446 253 -693 294 -114 18 -337 26 -435 14z m320 -115
c318 -23 655 -185 895 -429 183 -187 312 -414 380 -671 3 -13 458 -148 497
-148 15 0 25 -4 22 -9 -3 -4 0 -8 6 -8 8 0 10 -333 7 -1197 l-3 -1198 -27
-120 c-84 -379 -268 -689 -546 -919 -102 -84 -85 -73 -775 -505 l-607 -380
-57 36 c-31 20 -311 196 -622 391 -311 194 -599 379 -640 409 -41 31 -118 99
-171 153 -259 262 -417 597 -458 972 -17 149 -15 2346 1 2361 7 7 24 13 38 15
23 2 183 47 393 110 l88 27 40 120 c162 483 566 850 1062 961 115 26 278 44
357 38 25 -2 79 -6 120 -9z"/>
<path d="M2719 6290 c-550 -87 -1013 -497 -1154 -1023 -10 -37 -22 -70 -26
-73 -4 -2 -86 -27 -181 -55 -95 -27 -210 -61 -255 -75 l-83 -25 0 -1082 c0
-1086 4 -1244 35 -1392 77 -367 285 -696 591 -932 22 -18 320 -207 662 -422
l622 -390 608 380 c334 210 641 406 682 437 338 250 572 671 610 1096 6 64 10
573 10 1208 l0 1097 -82 25 c-46 14 -162 48 -258 76 -96 28 -178 54 -181 58
-4 4 -15 36 -24 71 -108 419 -446 787 -874 948 -153 57 -253 75 -456 78 -104
2 -215 0 -246 -5z m225 -316 c11 -28 6 -34 -27 -34 -35 0 -128 -15 -188 -31
l-36 -9 39 -40 c32 -34 88 -126 88 -145 0 -3 -11 -5 -23 -5 -19 0 -26 8 -36
40 -22 74 -86 131 -172 154 -30 8 -47 16 -39 19 171 60 380 87 394 51z m169 1
c83 -14 271 -75 289 -93 6 -6 1 -12 -11 -15 -12 -3 -19 -2 -16 3 5 9 -114 42
-209 59 -89 16 -87 17 -69 -26 22 -52 43 -133 43 -165 0 -23 -4 -28 -24 -28
-22 0 -26 7 -36 56 -10 48 -43 151 -65 207 -9 21 -9 21 98 2z m-590 -121 c3
-3 -35 -26 -83 -50 -49 -25 -124 -71 -167 -103 -98 -73 -241 -222 -282 -292
-33 -58 -40 -60 -17 -4 62 148 317 410 435 445 31 10 105 12 114 4z m499 -214
c0 -11 1 -26 2 -32 1 -15 0 -15 -97 -17 -71 -1 -73 -2 -75 -27 -3 -42 -65
-184 -118 -274 -27 -45 -97 -146 -155 -224 -153 -206 -215 -298 -264 -397 -55
-109 -118 -290 -141 -404 -16 -80 -19 -86 -32 -69 -10 14 -13 38 -9 94 12 195
168 501 457 900 105 145 157 254 178 371 l15 88 41 4 c23 2 76 4 119 5 70 2
77 0 79 -18z m212 -3 c63 -11 70 -15 77 -39 4 -15 5 -28 3 -30 -2 -3 -33 0
-69 6 -36 5 -67 7 -69 5 -2 -2 1 -60 6 -129 5 -69 10 -282 11 -475 2 -378 -4
-455 -60 -705 -32 -146 -89 -324 -108 -340 -20 -16 -20 -1 0 63 29 96 65 296
80 448 35 355 38 910 5 1129 -5 36 -10 68 -10 73 0 10 53 8 134 -6z m-533 -35
c-6 -21 -14 -28 -37 -30 -59 -5 -181 -35 -264 -64 -186 -65 -356 -175 -472
-306 -48 -53 -49 -35 -3 28 97 132 285 259 495 335 79 28 270 75 282 69 3 -2
3 -16 -1 -32z m771 -26 c203 -76 375 -205 465 -348 29 -46 57 -117 50 -125 -2
-1 -31 37 -64 85 -116 164 -217 245 -373 303 l-80 29 24 -63 c35 -93 115 -248
209 -406 47 -77 99 -179 116 -227 62 -172 77 -364 34 -449 l-19 -37 4 92 c11
220 -53 403 -280 803 -85 150 -158 295 -173 345 -8 29 7 29 87 -2z m-1666
-863 c56 -255 153 -435 323 -603 53 -52 126 -115 164 -139 37 -24 67 -45 67
-47 0 -2 -164 -3 -365 -1 -201 1 -365 0 -365 -1 0 -2 -11 -76 -25 -165 -13
-89 -45 -301 -70 -472 -66 -446 -115 -783 -123 -833 l-7 -44 -85 -34 c-47 -19
-92 -38 -100 -41 -30 -12 3 12 63 47 l62 36 27 155 c25 143 66 382 154 899 63
368 105 612 134 775 15 88 27 161 26 162 -1 1 -49 -51 -107 -117 l-104 -120
-3 185 -2 186 -66 94 c-36 52 -64 95 -62 95 2 0 48 -15 103 -33 l100 -33 120
37 c66 21 123 38 127 38 4 1 10 -11 14 -26z m2384 -11 l125 -38 99 33 c55 18
101 31 103 30 1 -2 -25 -43 -60 -93 l-62 -89 -5 -187 -5 -186 -104 119 c-57
65 -105 118 -106 116 -2 -1 10 -72 25 -157 16 -85 44 -249 64 -365 51 -297
102 -598 141 -825 18 -107 51 -295 72 -418 l38 -223 73 -40 c39 -22 72 -41 72
-43 0 -7 -185 67 -197 78 -6 6 -23 94 -37 196 -47 346 -187 1304 -190 1307 -2
2 -168 4 -370 4 -201 -1 -366 1 -366 3 0 2 32 24 70 50 248 165 416 420 484
739 4 15 7 27 9 27 1 0 58 -17 127 -38z m-1667 -1054 c-2 -24 -7 -77 -11 -118
l-7 -75 -30 4 c-16 1 -55 16 -85 31 -31 16 -73 31 -93 35 -43 8 -40 20 -66
-190 -40 -305 -64 -490 -65 -492 -1 -1 -52 -13 -114 -26 -98 -21 -112 -22
-112 -8 0 9 20 144 44 301 25 157 48 314 52 349 l7 63 -33 -7 c-18 -4 -63 -20
-99 -35 -77 -32 -131 -46 -131 -32 0 11 40 212 45 230 3 9 83 12 353 12 l350
0 -5 -42z m639 31 c89 -19 153 -61 185 -123 21 -41 20 -139 -3 -174 -21 -32
-55 -61 -71 -62 -18 0 -16 -20 2 -20 22 0 86 -61 101 -97 29 -68 15 -159 -32
-207 -60 -61 -94 -68 -429 -76 -165 -4 -302 -6 -304 -4 -2 2 14 41 37 86 l40
83 13 210 12 210 -31 72 c-54 122 -69 113 198 113 131 0 252 -5 282 -11z m612
-36 c3 -27 15 -172 26 -323 11 -151 24 -288 28 -305 7 -28 11 -30 122 -52
l114 -23 69 36 c38 19 71 34 73 31 6 -6 31 -277 26 -281 -1 -2 -24 3 -50 10
-71 22 -329 80 -492 112 -167 32 -162 26 -113 134 l26 58 -15 253 -15 253 -42
61 c-22 33 -41 66 -41 72 0 8 42 11 139 11 l139 0 6 -47z m-643 -993 c220 -22
1126 -183 1147 -204 8 -9 -74 -139 -136 -218 -63 -78 -146 -159 -227 -218 -27
-20 -230 -148 -450 -285 -220 -136 -430 -267 -467 -291 l-67 -43 -486 304
c-268 167 -519 330 -559 363 -39 32 -103 96 -142 140 -68 79 -171 238 -161
248 3 3 153 34 333 69 698 136 938 162 1215 135z"/>
<path d="M2926 3501 c-3 -24 -6 -63 -6 -87 l0 -44 78 0 c53 0 88 5 112 18 31
15 35 22 38 63 4 68 -17 83 -128 89 l-88 5 -6 -44z"/>
<path d="M2916 3204 c-3 -26 -6 -66 -6 -90 l0 -44 104 0 c89 0 107 3 130 21
19 15 26 30 26 55 0 77 -44 104 -168 104 l-79 0 -7 -46z"/>
<path d="M2890 2231 l-33 -69 -79 -12 -80 -13 58 -58 57 -58 -15 -75 c-8 -42
-13 -76 -11 -76 2 0 35 16 73 35 l70 35 70 -35 c38 -19 71 -35 74 -35 2 0 -3
34 -11 77 l-14 76 56 57 57 57 -34 6 c-18 3 -54 9 -79 12 -45 7 -47 8 -79 76
-19 38 -37 69 -40 69 -3 0 -21 -31 -40 -69z"/>
<path d="M2275 2190 c-17 -37 -22 -40 -67 -46 l-49 -7 35 -36 c32 -34 34 -39
27 -78 -5 -24 -6 -43 -4 -43 2 0 22 9 43 20 l40 20 41 -21 41 -20 -7 49 c-6
48 -5 51 24 73 37 27 39 39 9 39 -47 0 -69 13 -89 51 -11 22 -21 39 -23 39 -1
0 -11 -18 -21 -40z"/>
<path d="M3542 2194 c-21 -41 -42 -54 -89 -54 -30 0 -29 -6 8 -37 29 -25 31
-30 25 -75 l-7 -49 42 22 42 21 39 -22 c22 -12 41 -20 43 -18 2 2 0 21 -5 43
-9 38 -7 42 26 76 l35 36 -48 7 c-46 6 -51 9 -70 48 l-20 43 -21 -41z"/>
</g>
</svg>
